<mxfile host="app.diagrams.net" modified="2022-12-09T09:42:16.791Z" agent="5.0 (Windows NT 10.0; Win64; x64) AppleWebKit/537.36 (KHTML, like Gecko) Chrome/108.0.0.0 Safari/537.36 Edg/108.0.1462.42" etag="1Z98wZEqK1MXWXcVnMXJ" version="20.4.1" type="github">
  <diagram id="fulAj8bm6-tTNg_qQFgz" name="Page-1">
    <mxGraphModel dx="1002" dy="1277" grid="1" gridSize="10" guides="1" tooltips="1" connect="1" arrows="1" fold="1" page="1" pageScale="1" pageWidth="850" pageHeight="1100" math="0" shadow="0">
      <root>
        <mxCell id="0" />
        <mxCell id="1" parent="0" />
        <mxCell id="9gUpmdLU6GFoMHlMuonS-29" style="edgeStyle=orthogonalEdgeStyle;rounded=0;orthogonalLoop=1;jettySize=auto;html=1;exitX=0.5;exitY=1;exitDx=0;exitDy=0;entryX=0;entryY=0.25;entryDx=0;entryDy=0;fontSize=20;" edge="1" parent="1" source="9gUpmdLU6GFoMHlMuonS-1" target="9gUpmdLU6GFoMHlMuonS-7">
          <mxGeometry relative="1" as="geometry" />
        </mxCell>
        <mxCell id="9gUpmdLU6GFoMHlMuonS-57" style="edgeStyle=orthogonalEdgeStyle;rounded=0;orthogonalLoop=1;jettySize=auto;html=1;entryX=0.5;entryY=0;entryDx=0;entryDy=0;fontSize=20;" edge="1" parent="1" source="9gUpmdLU6GFoMHlMuonS-1" target="9gUpmdLU6GFoMHlMuonS-10">
          <mxGeometry relative="1" as="geometry" />
        </mxCell>
        <mxCell id="9gUpmdLU6GFoMHlMuonS-1" value="&lt;font style=&quot;font-size: 20px;&quot;&gt;%rbp&lt;/font&gt;" style="rounded=0;whiteSpace=wrap;html=1;" vertex="1" parent="1">
          <mxGeometry x="20" y="50" width="80" height="40" as="geometry" />
        </mxCell>
        <mxCell id="9gUpmdLU6GFoMHlMuonS-30" style="edgeStyle=orthogonalEdgeStyle;rounded=0;orthogonalLoop=1;jettySize=auto;html=1;exitX=0.5;exitY=1;exitDx=0;exitDy=0;entryX=0;entryY=0.5;entryDx=0;entryDy=0;fontSize=20;" edge="1" parent="1" source="9gUpmdLU6GFoMHlMuonS-2" target="9gUpmdLU6GFoMHlMuonS-7">
          <mxGeometry relative="1" as="geometry" />
        </mxCell>
        <mxCell id="9gUpmdLU6GFoMHlMuonS-37" style="edgeStyle=orthogonalEdgeStyle;rounded=0;orthogonalLoop=1;jettySize=auto;html=1;exitX=0.5;exitY=1;exitDx=0;exitDy=0;entryX=0;entryY=0.75;entryDx=0;entryDy=0;fontSize=20;" edge="1" parent="1" source="9gUpmdLU6GFoMHlMuonS-2" target="9gUpmdLU6GFoMHlMuonS-8">
          <mxGeometry relative="1" as="geometry" />
        </mxCell>
        <mxCell id="9gUpmdLU6GFoMHlMuonS-47" style="edgeStyle=orthogonalEdgeStyle;rounded=0;orthogonalLoop=1;jettySize=auto;html=1;exitX=0.5;exitY=1;exitDx=0;exitDy=0;entryX=0;entryY=0.25;entryDx=0;entryDy=0;fontSize=20;" edge="1" parent="1" source="9gUpmdLU6GFoMHlMuonS-2" target="9gUpmdLU6GFoMHlMuonS-46">
          <mxGeometry relative="1" as="geometry" />
        </mxCell>
        <mxCell id="9gUpmdLU6GFoMHlMuonS-2" value="&lt;font style=&quot;font-size: 20px;&quot;&gt;%rcx&lt;/font&gt;" style="rounded=0;whiteSpace=wrap;html=1;" vertex="1" parent="1">
          <mxGeometry x="100" y="50" width="80" height="40" as="geometry" />
        </mxCell>
        <mxCell id="9gUpmdLU6GFoMHlMuonS-36" style="edgeStyle=orthogonalEdgeStyle;rounded=0;orthogonalLoop=1;jettySize=auto;html=1;exitX=0.5;exitY=1;exitDx=0;exitDy=0;entryX=0;entryY=0.25;entryDx=0;entryDy=0;fontSize=20;" edge="1" parent="1" source="9gUpmdLU6GFoMHlMuonS-3" target="9gUpmdLU6GFoMHlMuonS-8">
          <mxGeometry relative="1" as="geometry" />
        </mxCell>
        <mxCell id="9gUpmdLU6GFoMHlMuonS-58" style="edgeStyle=orthogonalEdgeStyle;rounded=0;orthogonalLoop=1;jettySize=auto;html=1;entryX=0.5;entryY=0;entryDx=0;entryDy=0;fontSize=20;" edge="1" parent="1" source="9gUpmdLU6GFoMHlMuonS-3" target="9gUpmdLU6GFoMHlMuonS-12">
          <mxGeometry relative="1" as="geometry" />
        </mxCell>
        <mxCell id="9gUpmdLU6GFoMHlMuonS-3" value="&lt;font style=&quot;font-size: 20px;&quot;&gt;%rax&lt;/font&gt;" style="rounded=0;whiteSpace=wrap;html=1;" vertex="1" parent="1">
          <mxGeometry x="180" y="50" width="80" height="40" as="geometry" />
        </mxCell>
        <mxCell id="9gUpmdLU6GFoMHlMuonS-59" style="edgeStyle=orthogonalEdgeStyle;rounded=0;orthogonalLoop=1;jettySize=auto;html=1;entryX=0.5;entryY=0;entryDx=0;entryDy=0;fontSize=20;" edge="1" parent="1" source="9gUpmdLU6GFoMHlMuonS-4" target="9gUpmdLU6GFoMHlMuonS-13">
          <mxGeometry relative="1" as="geometry" />
        </mxCell>
        <mxCell id="9gUpmdLU6GFoMHlMuonS-72" style="edgeStyle=orthogonalEdgeStyle;rounded=0;orthogonalLoop=1;jettySize=auto;html=1;exitX=0.5;exitY=1;exitDx=0;exitDy=0;entryX=0;entryY=0.25;entryDx=0;entryDy=0;fontSize=20;" edge="1" parent="1" source="9gUpmdLU6GFoMHlMuonS-4" target="9gUpmdLU6GFoMHlMuonS-49">
          <mxGeometry relative="1" as="geometry" />
        </mxCell>
        <mxCell id="9gUpmdLU6GFoMHlMuonS-4" value="&lt;font style=&quot;font-size: 20px;&quot;&gt;%rbx&lt;/font&gt;" style="rounded=0;whiteSpace=wrap;html=1;" vertex="1" parent="1">
          <mxGeometry x="260" y="50" width="80" height="40" as="geometry" />
        </mxCell>
        <mxCell id="9gUpmdLU6GFoMHlMuonS-5" value="&lt;font style=&quot;font-size: 20px;&quot;&gt;%xmm1&lt;/font&gt;" style="rounded=0;whiteSpace=wrap;html=1;" vertex="1" parent="1">
          <mxGeometry x="340" y="50" width="80" height="40" as="geometry" />
        </mxCell>
        <mxCell id="9gUpmdLU6GFoMHlMuonS-64" style="edgeStyle=orthogonalEdgeStyle;rounded=0;orthogonalLoop=1;jettySize=auto;html=1;exitX=0.5;exitY=1;exitDx=0;exitDy=0;entryX=0;entryY=0.25;entryDx=0;entryDy=0;fontSize=20;" edge="1" parent="1" source="9gUpmdLU6GFoMHlMuonS-6" target="9gUpmdLU6GFoMHlMuonS-41">
          <mxGeometry relative="1" as="geometry" />
        </mxCell>
        <mxCell id="9gUpmdLU6GFoMHlMuonS-6" value="&lt;font style=&quot;font-size: 20px;&quot;&gt;%xmm0&lt;/font&gt;" style="rounded=0;whiteSpace=wrap;html=1;" vertex="1" parent="1">
          <mxGeometry x="420" y="50" width="80" height="40" as="geometry" />
        </mxCell>
        <mxCell id="9gUpmdLU6GFoMHlMuonS-32" style="edgeStyle=orthogonalEdgeStyle;rounded=0;orthogonalLoop=1;jettySize=auto;html=1;exitX=0;exitY=0.75;exitDx=0;exitDy=0;fontSize=20;entryX=0;entryY=0.25;entryDx=0;entryDy=0;" edge="1" parent="1" source="9gUpmdLU6GFoMHlMuonS-7" target="9gUpmdLU6GFoMHlMuonS-9">
          <mxGeometry relative="1" as="geometry">
            <Array as="points">
              <mxPoint x="380" y="170" />
              <mxPoint x="380" y="298" />
            </Array>
          </mxGeometry>
        </mxCell>
        <mxCell id="9gUpmdLU6GFoMHlMuonS-7" value="&lt;font style=&quot;font-size: 20px;&quot;&gt;load&lt;/font&gt;" style="rounded=0;whiteSpace=wrap;html=1;" vertex="1" parent="1">
          <mxGeometry x="520" y="110" width="80" height="80" as="geometry" />
        </mxCell>
        <mxCell id="9gUpmdLU6GFoMHlMuonS-38" style="edgeStyle=orthogonalEdgeStyle;rounded=0;orthogonalLoop=1;jettySize=auto;html=1;exitX=1;exitY=0.5;exitDx=0;exitDy=0;entryX=1;entryY=0.5;entryDx=0;entryDy=0;fontSize=20;" edge="1" parent="1" source="9gUpmdLU6GFoMHlMuonS-8" target="9gUpmdLU6GFoMHlMuonS-9">
          <mxGeometry relative="1" as="geometry" />
        </mxCell>
        <mxCell id="9gUpmdLU6GFoMHlMuonS-8" value="&lt;font style=&quot;font-size: 20px;&quot;&gt;load&lt;/font&gt;&lt;span style=&quot;color: rgba(0, 0, 0, 0); font-family: monospace; font-size: 0px; text-align: start;&quot;&gt;%3CmxGraphModel%3E%3Croot%3E%3CmxCell%20id%3D%220%22%2F%3E%3CmxCell%20id%3D%221%22%20parent%3D%220%22%2F%3E%3CmxCell%20id%3D%222%22%20value%3D%22%26lt%3Bfont%20style%3D%26quot%3Bfont-size%3A%2020px%3B%26quot%3B%26gt%3BLoad%26lt%3B%2Ffont%26gt%3B%22%20style%3D%22rounded%3D0%3BwhiteSpace%3Dwrap%3Bhtml%3D1%3B%22%20vertex%3D%221%22%20parent%3D%221%22%3E%3CmxGeometry%20x%3D%22500%22%20y%3D%22130%22%20width%3D%2280%22%20height%3D%22120%22%20as%3D%22geometry%22%2F%3E%3C%2FmxCell%3E%3C%2Froot%3E%3C%2FmxGraphModel%3E&lt;/span&gt;" style="rounded=0;whiteSpace=wrap;html=1;" vertex="1" parent="1">
          <mxGeometry x="520" y="200" width="80" height="70" as="geometry" />
        </mxCell>
        <mxCell id="9gUpmdLU6GFoMHlMuonS-63" style="edgeStyle=orthogonalEdgeStyle;rounded=0;orthogonalLoop=1;jettySize=auto;html=1;exitX=0;exitY=0.75;exitDx=0;exitDy=0;entryX=0;entryY=0.5;entryDx=0;entryDy=0;fontSize=20;" edge="1" parent="1" source="9gUpmdLU6GFoMHlMuonS-9" target="9gUpmdLU6GFoMHlMuonS-41">
          <mxGeometry relative="1" as="geometry">
            <Array as="points">
              <mxPoint x="380" y="333" />
              <mxPoint x="380" y="395" />
            </Array>
          </mxGeometry>
        </mxCell>
        <mxCell id="9gUpmdLU6GFoMHlMuonS-65" style="edgeStyle=orthogonalEdgeStyle;rounded=0;orthogonalLoop=1;jettySize=auto;html=1;exitX=0;exitY=0.75;exitDx=0;exitDy=0;entryX=0.5;entryY=0;entryDx=0;entryDy=0;fontSize=20;" edge="1" parent="1" source="9gUpmdLU6GFoMHlMuonS-9" target="9gUpmdLU6GFoMHlMuonS-14">
          <mxGeometry relative="1" as="geometry" />
        </mxCell>
        <mxCell id="9gUpmdLU6GFoMHlMuonS-9" value="&lt;span style=&quot;font-size: 20px;&quot;&gt;mul&lt;/span&gt;" style="rounded=0;whiteSpace=wrap;html=1;" vertex="1" parent="1">
          <mxGeometry x="520" y="280" width="80" height="70" as="geometry" />
        </mxCell>
        <mxCell id="9gUpmdLU6GFoMHlMuonS-10" value="&lt;font style=&quot;font-size: 20px;&quot;&gt;%rbp&lt;/font&gt;" style="rounded=0;whiteSpace=wrap;html=1;" vertex="1" parent="1">
          <mxGeometry x="20" y="730" width="80" height="40" as="geometry" />
        </mxCell>
        <mxCell id="9gUpmdLU6GFoMHlMuonS-11" value="&lt;font style=&quot;font-size: 20px;&quot;&gt;%rcx&lt;/font&gt;" style="rounded=0;whiteSpace=wrap;html=1;" vertex="1" parent="1">
          <mxGeometry x="100" y="730" width="80" height="40" as="geometry" />
        </mxCell>
        <mxCell id="9gUpmdLU6GFoMHlMuonS-12" value="&lt;font style=&quot;font-size: 20px;&quot;&gt;%rax&lt;/font&gt;" style="rounded=0;whiteSpace=wrap;html=1;" vertex="1" parent="1">
          <mxGeometry x="180" y="730" width="80" height="40" as="geometry" />
        </mxCell>
        <mxCell id="9gUpmdLU6GFoMHlMuonS-13" value="&lt;font style=&quot;font-size: 20px;&quot;&gt;%rbx&lt;/font&gt;" style="rounded=0;whiteSpace=wrap;html=1;" vertex="1" parent="1">
          <mxGeometry x="260" y="730" width="80" height="40" as="geometry" />
        </mxCell>
        <mxCell id="9gUpmdLU6GFoMHlMuonS-14" value="&lt;font style=&quot;font-size: 20px;&quot;&gt;%xmm1&lt;/font&gt;" style="rounded=0;whiteSpace=wrap;html=1;" vertex="1" parent="1">
          <mxGeometry x="340" y="730" width="80" height="40" as="geometry" />
        </mxCell>
        <mxCell id="9gUpmdLU6GFoMHlMuonS-15" value="&lt;font style=&quot;font-size: 20px;&quot;&gt;%xmm0&lt;/font&gt;" style="rounded=0;whiteSpace=wrap;html=1;" vertex="1" parent="1">
          <mxGeometry x="420" y="730" width="80" height="40" as="geometry" />
        </mxCell>
        <mxCell id="9gUpmdLU6GFoMHlMuonS-16" value="vmovad 0(%rbp,%rcx,8),%xmm1" style="text;html=1;strokeColor=none;fillColor=none;align=left;verticalAlign=middle;whiteSpace=wrap;rounded=0;fontSize=20;" vertex="1" parent="1">
          <mxGeometry x="640" y="133" width="460" height="30" as="geometry" />
        </mxCell>
        <mxCell id="9gUpmdLU6GFoMHlMuonS-19" value="&lt;span style=&quot;background-color: initial;&quot;&gt;vmulsd (%rax,%rcx,8),%xmm1,%xmm1&lt;/span&gt;" style="text;html=1;strokeColor=none;fillColor=none;align=left;verticalAlign=middle;whiteSpace=wrap;rounded=0;fontSize=20;" vertex="1" parent="1">
          <mxGeometry x="641" y="260" width="460" height="30" as="geometry" />
        </mxCell>
        <mxCell id="9gUpmdLU6GFoMHlMuonS-23" value="&lt;span style=&quot;background-color: initial;&quot;&gt;vaddsd %xmm1,%xmm0,%xmm0&lt;br&gt;&lt;/span&gt;" style="text;html=1;strokeColor=none;fillColor=none;align=left;verticalAlign=middle;whiteSpace=wrap;rounded=0;fontSize=20;" vertex="1" parent="1">
          <mxGeometry x="640" y="380" width="460" height="30" as="geometry" />
        </mxCell>
        <mxCell id="9gUpmdLU6GFoMHlMuonS-24" value="&lt;span style=&quot;background-color: initial;&quot;&gt;addq $1, %rcx&lt;/span&gt;" style="text;html=1;strokeColor=none;fillColor=none;align=left;verticalAlign=middle;whiteSpace=wrap;rounded=0;fontSize=20;" vertex="1" parent="1">
          <mxGeometry x="640" y="462" width="460" height="30" as="geometry" />
        </mxCell>
        <mxCell id="9gUpmdLU6GFoMHlMuonS-26" value="&lt;span style=&quot;background-color: initial;&quot;&gt;cmpq %rbx, %rcx&lt;br&gt;&lt;/span&gt;" style="text;html=1;strokeColor=none;fillColor=none;align=left;verticalAlign=middle;whiteSpace=wrap;rounded=0;fontSize=20;" vertex="1" parent="1">
          <mxGeometry x="640" y="540" width="460" height="30" as="geometry" />
        </mxCell>
        <mxCell id="9gUpmdLU6GFoMHlMuonS-28" value="&lt;span style=&quot;background-color: initial;&quot;&gt;jne .L15&lt;/span&gt;" style="text;html=1;strokeColor=none;fillColor=none;align=left;verticalAlign=middle;whiteSpace=wrap;rounded=0;fontSize=20;" vertex="1" parent="1">
          <mxGeometry x="640" y="630" width="460" height="30" as="geometry" />
        </mxCell>
        <mxCell id="9gUpmdLU6GFoMHlMuonS-45" style="edgeStyle=orthogonalEdgeStyle;rounded=0;orthogonalLoop=1;jettySize=auto;html=1;exitX=0;exitY=0.75;exitDx=0;exitDy=0;entryX=0.5;entryY=0;entryDx=0;entryDy=0;fontSize=20;" edge="1" parent="1" source="9gUpmdLU6GFoMHlMuonS-41" target="9gUpmdLU6GFoMHlMuonS-15">
          <mxGeometry relative="1" as="geometry" />
        </mxCell>
        <mxCell id="9gUpmdLU6GFoMHlMuonS-41" value="&lt;span style=&quot;font-size: 20px;&quot;&gt;add&lt;/span&gt;" style="rounded=0;whiteSpace=wrap;html=1;" vertex="1" parent="1">
          <mxGeometry x="520" y="360" width="80" height="70" as="geometry" />
        </mxCell>
        <mxCell id="9gUpmdLU6GFoMHlMuonS-48" style="edgeStyle=orthogonalEdgeStyle;rounded=0;orthogonalLoop=1;jettySize=auto;html=1;exitX=0;exitY=0.75;exitDx=0;exitDy=0;fontSize=20;" edge="1" parent="1" source="9gUpmdLU6GFoMHlMuonS-46" target="9gUpmdLU6GFoMHlMuonS-11">
          <mxGeometry relative="1" as="geometry" />
        </mxCell>
        <mxCell id="9gUpmdLU6GFoMHlMuonS-53" style="edgeStyle=orthogonalEdgeStyle;rounded=0;orthogonalLoop=1;jettySize=auto;html=1;exitX=0;exitY=0.75;exitDx=0;exitDy=0;entryX=0;entryY=0.75;entryDx=0;entryDy=0;fontSize=20;" edge="1" parent="1" source="9gUpmdLU6GFoMHlMuonS-46" target="9gUpmdLU6GFoMHlMuonS-49">
          <mxGeometry relative="1" as="geometry">
            <Array as="points">
              <mxPoint x="140" y="493" />
              <mxPoint x="140" y="573" />
            </Array>
          </mxGeometry>
        </mxCell>
        <mxCell id="9gUpmdLU6GFoMHlMuonS-46" value="&lt;span style=&quot;font-size: 20px;&quot;&gt;add&lt;/span&gt;" style="rounded=0;whiteSpace=wrap;html=1;" vertex="1" parent="1">
          <mxGeometry x="520" y="440" width="80" height="70" as="geometry" />
        </mxCell>
        <mxCell id="9gUpmdLU6GFoMHlMuonS-56" style="edgeStyle=orthogonalEdgeStyle;rounded=0;orthogonalLoop=1;jettySize=auto;html=1;exitX=1;exitY=0.5;exitDx=0;exitDy=0;entryX=1;entryY=0.5;entryDx=0;entryDy=0;fontSize=20;" edge="1" parent="1" source="9gUpmdLU6GFoMHlMuonS-49" target="9gUpmdLU6GFoMHlMuonS-54">
          <mxGeometry relative="1" as="geometry" />
        </mxCell>
        <mxCell id="9gUpmdLU6GFoMHlMuonS-49" value="&lt;span style=&quot;font-size: 20px;&quot;&gt;cmp&lt;/span&gt;" style="rounded=0;whiteSpace=wrap;html=1;" vertex="1" parent="1">
          <mxGeometry x="520" y="520" width="80" height="70" as="geometry" />
        </mxCell>
        <mxCell id="9gUpmdLU6GFoMHlMuonS-54" value="&lt;span style=&quot;font-size: 20px;&quot;&gt;jne&lt;/span&gt;" style="rounded=0;whiteSpace=wrap;html=1;" vertex="1" parent="1">
          <mxGeometry x="520" y="610" width="80" height="70" as="geometry" />
        </mxCell>
        <mxCell id="9gUpmdLU6GFoMHlMuonS-82" style="edgeStyle=orthogonalEdgeStyle;rounded=0;orthogonalLoop=1;jettySize=auto;html=1;exitX=0.5;exitY=1;exitDx=0;exitDy=0;entryX=0.5;entryY=0;entryDx=0;entryDy=0;fontSize=20;" edge="1" parent="1" source="9gUpmdLU6GFoMHlMuonS-73" target="9gUpmdLU6GFoMHlMuonS-81">
          <mxGeometry relative="1" as="geometry" />
        </mxCell>
        <mxCell id="9gUpmdLU6GFoMHlMuonS-84" style="edgeStyle=orthogonalEdgeStyle;rounded=0;orthogonalLoop=1;jettySize=auto;html=1;exitX=0.5;exitY=1;exitDx=0;exitDy=0;entryX=0;entryY=0.5;entryDx=0;entryDy=0;fontSize=20;" edge="1" parent="1" source="9gUpmdLU6GFoMHlMuonS-73" target="9gUpmdLU6GFoMHlMuonS-75">
          <mxGeometry relative="1" as="geometry" />
        </mxCell>
        <mxCell id="9gUpmdLU6GFoMHlMuonS-126" style="edgeStyle=orthogonalEdgeStyle;rounded=0;orthogonalLoop=1;jettySize=auto;html=1;exitX=0.5;exitY=1;exitDx=0;exitDy=0;entryX=0;entryY=0.5;entryDx=0;entryDy=0;fontSize=20;" edge="1" parent="1" source="9gUpmdLU6GFoMHlMuonS-73" target="9gUpmdLU6GFoMHlMuonS-125">
          <mxGeometry relative="1" as="geometry" />
        </mxCell>
        <mxCell id="9gUpmdLU6GFoMHlMuonS-73" value="&lt;font style=&quot;font-size: 20px;&quot;&gt;%rcx&lt;/font&gt;" style="rounded=0;whiteSpace=wrap;html=1;" vertex="1" parent="1">
          <mxGeometry x="80" y="820" width="80" height="40" as="geometry" />
        </mxCell>
        <mxCell id="9gUpmdLU6GFoMHlMuonS-74" value="&lt;font style=&quot;font-size: 20px;&quot;&gt;%xmm0&lt;/font&gt;" style="rounded=0;whiteSpace=wrap;html=1;" vertex="1" parent="1">
          <mxGeometry x="405" y="820" width="80" height="40" as="geometry" />
        </mxCell>
        <mxCell id="9gUpmdLU6GFoMHlMuonS-86" value="" style="edgeStyle=orthogonalEdgeStyle;rounded=0;orthogonalLoop=1;jettySize=auto;html=1;fontSize=20;" edge="1" parent="1" source="9gUpmdLU6GFoMHlMuonS-75" target="9gUpmdLU6GFoMHlMuonS-85">
          <mxGeometry relative="1" as="geometry" />
        </mxCell>
        <mxCell id="9gUpmdLU6GFoMHlMuonS-75" value="&lt;font style=&quot;font-size: 20px;&quot;&gt;load&lt;/font&gt;&lt;span style=&quot;color: rgba(0, 0, 0, 0); font-family: monospace; font-size: 0px; text-align: start;&quot;&gt;%3CmxGraphModel%3E%3Croot%3E%3CmxCell%20id%3D%220%22%2F%3E%3CmxCell%20id%3D%221%22%20parent%3D%220%22%2F%3E%3CmxCell%20id%3D%222%22%20value%3D%22%26lt%3Bfont%20style%3D%26quot%3Bfont-size%3A%2020px%3B%26quot%3B%26gt%3BLoad%26lt%3B%2Ffont%26gt%3B%22%20style%3D%22rounded%3D0%3BwhiteSpace%3Dwrap%3Bhtml%3D1%3B%22%20vertex%3D%221%22%20parent%3D%221%22%3E%3CmxGeometry%20x%3D%22500%22%20y%3D%22130%22%20width%3D%2280%22%20height%3D%22120%22%20as%3D%22geometry%22%2F%3E%3C%2FmxCell%3E%3C%2Froot%3E%3C%2FmxGraphModel%3E&lt;/span&gt;" style="rounded=0;whiteSpace=wrap;html=1;" vertex="1" parent="1">
          <mxGeometry x="200" y="900" width="80" height="70" as="geometry" />
        </mxCell>
        <mxCell id="9gUpmdLU6GFoMHlMuonS-79" value="&lt;font style=&quot;font-size: 20px;&quot;&gt;%rcx&lt;/font&gt;" style="rounded=0;whiteSpace=wrap;html=1;" vertex="1" parent="1">
          <mxGeometry x="80" y="1290" width="80" height="40" as="geometry" />
        </mxCell>
        <mxCell id="9gUpmdLU6GFoMHlMuonS-80" value="&lt;font style=&quot;font-size: 20px;&quot;&gt;%xmm0&lt;/font&gt;" style="rounded=0;whiteSpace=wrap;html=1;" vertex="1" parent="1">
          <mxGeometry x="405" y="1290" width="80" height="40" as="geometry" />
        </mxCell>
        <mxCell id="9gUpmdLU6GFoMHlMuonS-83" value="" style="edgeStyle=orthogonalEdgeStyle;rounded=0;orthogonalLoop=1;jettySize=auto;html=1;fontSize=20;" edge="1" parent="1" source="9gUpmdLU6GFoMHlMuonS-81" target="9gUpmdLU6GFoMHlMuonS-79">
          <mxGeometry relative="1" as="geometry" />
        </mxCell>
        <mxCell id="9gUpmdLU6GFoMHlMuonS-81" value="&lt;span style=&quot;font-size: 20px;&quot;&gt;add&lt;/span&gt;" style="rounded=0;whiteSpace=wrap;html=1;" vertex="1" parent="1">
          <mxGeometry x="80" y="1160" width="80" height="70" as="geometry" />
        </mxCell>
        <mxCell id="9gUpmdLU6GFoMHlMuonS-85" value="&lt;span style=&quot;font-size: 20px;&quot;&gt;mul&lt;/span&gt;" style="rounded=0;whiteSpace=wrap;html=1;" vertex="1" parent="1">
          <mxGeometry x="310" y="1000" width="80" height="70" as="geometry" />
        </mxCell>
        <mxCell id="9gUpmdLU6GFoMHlMuonS-89" value="&lt;font style=&quot;font-size: 20px;&quot;&gt;%rbp&lt;/font&gt;" style="rounded=0;whiteSpace=wrap;html=1;" vertex="1" parent="1">
          <mxGeometry x="40" y="1380" width="80" height="40" as="geometry" />
        </mxCell>
        <mxCell id="9gUpmdLU6GFoMHlMuonS-90" style="edgeStyle=orthogonalEdgeStyle;rounded=0;orthogonalLoop=1;jettySize=auto;html=1;exitX=0.5;exitY=1;exitDx=0;exitDy=0;entryX=0;entryY=0.5;entryDx=0;entryDy=0;fontSize=20;" edge="1" parent="1" source="9gUpmdLU6GFoMHlMuonS-93" target="9gUpmdLU6GFoMHlMuonS-104">
          <mxGeometry relative="1" as="geometry" />
        </mxCell>
        <mxCell id="9gUpmdLU6GFoMHlMuonS-91" style="edgeStyle=orthogonalEdgeStyle;rounded=0;orthogonalLoop=1;jettySize=auto;html=1;exitX=0.5;exitY=1;exitDx=0;exitDy=0;entryX=0;entryY=0.75;entryDx=0;entryDy=0;fontSize=20;" edge="1" parent="1" source="9gUpmdLU6GFoMHlMuonS-93" target="9gUpmdLU6GFoMHlMuonS-106">
          <mxGeometry relative="1" as="geometry" />
        </mxCell>
        <mxCell id="9gUpmdLU6GFoMHlMuonS-92" style="edgeStyle=orthogonalEdgeStyle;rounded=0;orthogonalLoop=1;jettySize=auto;html=1;exitX=0.5;exitY=1;exitDx=0;exitDy=0;entryX=0;entryY=0.25;entryDx=0;entryDy=0;fontSize=20;" edge="1" parent="1" source="9gUpmdLU6GFoMHlMuonS-93" target="9gUpmdLU6GFoMHlMuonS-120">
          <mxGeometry relative="1" as="geometry" />
        </mxCell>
        <mxCell id="9gUpmdLU6GFoMHlMuonS-93" value="&lt;font style=&quot;font-size: 20px;&quot;&gt;%rcx&lt;/font&gt;" style="rounded=0;whiteSpace=wrap;html=1;" vertex="1" parent="1">
          <mxGeometry x="120" y="1380" width="80" height="40" as="geometry" />
        </mxCell>
        <mxCell id="9gUpmdLU6GFoMHlMuonS-96" value="&lt;font style=&quot;font-size: 20px;&quot;&gt;%rax&lt;/font&gt;" style="rounded=0;whiteSpace=wrap;html=1;" vertex="1" parent="1">
          <mxGeometry x="200" y="1380" width="80" height="40" as="geometry" />
        </mxCell>
        <mxCell id="9gUpmdLU6GFoMHlMuonS-99" value="&lt;font style=&quot;font-size: 20px;&quot;&gt;%rbx&lt;/font&gt;" style="rounded=0;whiteSpace=wrap;html=1;" vertex="1" parent="1">
          <mxGeometry x="280" y="1380" width="80" height="40" as="geometry" />
        </mxCell>
        <mxCell id="9gUpmdLU6GFoMHlMuonS-100" value="&lt;font style=&quot;font-size: 20px;&quot;&gt;%xmm1&lt;/font&gt;" style="rounded=0;whiteSpace=wrap;html=1;" vertex="1" parent="1">
          <mxGeometry x="360" y="1380" width="80" height="40" as="geometry" />
        </mxCell>
        <mxCell id="9gUpmdLU6GFoMHlMuonS-101" style="edgeStyle=orthogonalEdgeStyle;rounded=0;orthogonalLoop=1;jettySize=auto;html=1;exitX=0.5;exitY=1;exitDx=0;exitDy=0;entryX=0;entryY=0.25;entryDx=0;entryDy=0;fontSize=20;" edge="1" parent="1" source="9gUpmdLU6GFoMHlMuonS-102" target="9gUpmdLU6GFoMHlMuonS-117">
          <mxGeometry relative="1" as="geometry" />
        </mxCell>
        <mxCell id="9gUpmdLU6GFoMHlMuonS-102" value="&lt;font style=&quot;font-size: 20px;&quot;&gt;%xmm0&lt;/font&gt;" style="rounded=0;whiteSpace=wrap;html=1;" vertex="1" parent="1">
          <mxGeometry x="440" y="1380" width="80" height="40" as="geometry" />
        </mxCell>
        <mxCell id="9gUpmdLU6GFoMHlMuonS-103" style="edgeStyle=orthogonalEdgeStyle;rounded=0;orthogonalLoop=1;jettySize=auto;html=1;exitX=0;exitY=0.75;exitDx=0;exitDy=0;fontSize=20;entryX=0;entryY=0.25;entryDx=0;entryDy=0;" edge="1" parent="1" source="9gUpmdLU6GFoMHlMuonS-104" target="9gUpmdLU6GFoMHlMuonS-109">
          <mxGeometry relative="1" as="geometry">
            <Array as="points">
              <mxPoint x="400" y="1500" />
              <mxPoint x="400" y="1628" />
            </Array>
          </mxGeometry>
        </mxCell>
        <mxCell id="9gUpmdLU6GFoMHlMuonS-104" value="&lt;font style=&quot;font-size: 20px;&quot;&gt;load&lt;/font&gt;" style="rounded=0;whiteSpace=wrap;html=1;" vertex="1" parent="1">
          <mxGeometry x="540" y="1430" width="80" height="80" as="geometry" />
        </mxCell>
        <mxCell id="9gUpmdLU6GFoMHlMuonS-105" style="edgeStyle=orthogonalEdgeStyle;rounded=0;orthogonalLoop=1;jettySize=auto;html=1;exitX=1;exitY=0.5;exitDx=0;exitDy=0;entryX=1;entryY=0.5;entryDx=0;entryDy=0;fontSize=20;" edge="1" parent="1" source="9gUpmdLU6GFoMHlMuonS-106" target="9gUpmdLU6GFoMHlMuonS-109">
          <mxGeometry relative="1" as="geometry" />
        </mxCell>
        <mxCell id="9gUpmdLU6GFoMHlMuonS-106" value="&lt;font style=&quot;font-size: 20px;&quot;&gt;load&lt;/font&gt;&lt;span style=&quot;color: rgba(0, 0, 0, 0); font-family: monospace; font-size: 0px; text-align: start;&quot;&gt;%3CmxGraphModel%3E%3Croot%3E%3CmxCell%20id%3D%220%22%2F%3E%3CmxCell%20id%3D%221%22%20parent%3D%220%22%2F%3E%3CmxCell%20id%3D%222%22%20value%3D%22%26lt%3Bfont%20style%3D%26quot%3Bfont-size%3A%2020px%3B%26quot%3B%26gt%3BLoad%26lt%3B%2Ffont%26gt%3B%22%20style%3D%22rounded%3D0%3BwhiteSpace%3Dwrap%3Bhtml%3D1%3B%22%20vertex%3D%221%22%20parent%3D%221%22%3E%3CmxGeometry%20x%3D%22500%22%20y%3D%22130%22%20width%3D%2280%22%20height%3D%22120%22%20as%3D%22geometry%22%2F%3E%3C%2FmxCell%3E%3C%2Froot%3E%3C%2FmxGraphModel%3E&lt;/span&gt;" style="rounded=0;whiteSpace=wrap;html=1;" vertex="1" parent="1">
          <mxGeometry x="540" y="1530" width="80" height="70" as="geometry" />
        </mxCell>
        <mxCell id="9gUpmdLU6GFoMHlMuonS-107" style="edgeStyle=orthogonalEdgeStyle;rounded=0;orthogonalLoop=1;jettySize=auto;html=1;exitX=0;exitY=0.75;exitDx=0;exitDy=0;entryX=0;entryY=0.5;entryDx=0;entryDy=0;fontSize=20;" edge="1" parent="1" source="9gUpmdLU6GFoMHlMuonS-109" target="9gUpmdLU6GFoMHlMuonS-117">
          <mxGeometry relative="1" as="geometry">
            <Array as="points">
              <mxPoint x="400" y="1663" />
              <mxPoint x="400" y="1725" />
            </Array>
          </mxGeometry>
        </mxCell>
        <mxCell id="9gUpmdLU6GFoMHlMuonS-108" style="edgeStyle=orthogonalEdgeStyle;rounded=0;orthogonalLoop=1;jettySize=auto;html=1;exitX=0;exitY=0.75;exitDx=0;exitDy=0;entryX=0.5;entryY=0;entryDx=0;entryDy=0;fontSize=20;" edge="1" parent="1" source="9gUpmdLU6GFoMHlMuonS-109" target="9gUpmdLU6GFoMHlMuonS-114">
          <mxGeometry relative="1" as="geometry" />
        </mxCell>
        <mxCell id="9gUpmdLU6GFoMHlMuonS-109" value="&lt;span style=&quot;font-size: 20px;&quot;&gt;mul&lt;/span&gt;" style="rounded=0;whiteSpace=wrap;html=1;" vertex="1" parent="1">
          <mxGeometry x="540" y="1610" width="80" height="70" as="geometry" />
        </mxCell>
        <mxCell id="9gUpmdLU6GFoMHlMuonS-110" value="&lt;font style=&quot;font-size: 20px;&quot;&gt;%rbp&lt;/font&gt;" style="rounded=0;whiteSpace=wrap;html=1;" vertex="1" parent="1">
          <mxGeometry x="40" y="2060" width="80" height="40" as="geometry" />
        </mxCell>
        <mxCell id="9gUpmdLU6GFoMHlMuonS-111" value="&lt;font style=&quot;font-size: 20px;&quot;&gt;%rcx&lt;/font&gt;" style="rounded=0;whiteSpace=wrap;html=1;" vertex="1" parent="1">
          <mxGeometry x="120" y="2060" width="80" height="40" as="geometry" />
        </mxCell>
        <mxCell id="9gUpmdLU6GFoMHlMuonS-112" value="&lt;font style=&quot;font-size: 20px;&quot;&gt;%rax&lt;/font&gt;" style="rounded=0;whiteSpace=wrap;html=1;" vertex="1" parent="1">
          <mxGeometry x="200" y="2060" width="80" height="40" as="geometry" />
        </mxCell>
        <mxCell id="9gUpmdLU6GFoMHlMuonS-113" value="&lt;font style=&quot;font-size: 20px;&quot;&gt;%rbx&lt;/font&gt;" style="rounded=0;whiteSpace=wrap;html=1;" vertex="1" parent="1">
          <mxGeometry x="280" y="2060" width="80" height="40" as="geometry" />
        </mxCell>
        <mxCell id="9gUpmdLU6GFoMHlMuonS-114" value="&lt;font style=&quot;font-size: 20px;&quot;&gt;%xmm1&lt;/font&gt;" style="rounded=0;whiteSpace=wrap;html=1;" vertex="1" parent="1">
          <mxGeometry x="360" y="2060" width="80" height="40" as="geometry" />
        </mxCell>
        <mxCell id="9gUpmdLU6GFoMHlMuonS-115" value="&lt;font style=&quot;font-size: 20px;&quot;&gt;%xmm0&lt;/font&gt;" style="rounded=0;whiteSpace=wrap;html=1;" vertex="1" parent="1">
          <mxGeometry x="440" y="2060" width="80" height="40" as="geometry" />
        </mxCell>
        <mxCell id="9gUpmdLU6GFoMHlMuonS-116" style="edgeStyle=orthogonalEdgeStyle;rounded=0;orthogonalLoop=1;jettySize=auto;html=1;exitX=0;exitY=0.75;exitDx=0;exitDy=0;entryX=0.5;entryY=0;entryDx=0;entryDy=0;fontSize=20;" edge="1" parent="1" source="9gUpmdLU6GFoMHlMuonS-117" target="9gUpmdLU6GFoMHlMuonS-115">
          <mxGeometry relative="1" as="geometry" />
        </mxCell>
        <mxCell id="9gUpmdLU6GFoMHlMuonS-117" value="&lt;span style=&quot;font-size: 20px;&quot;&gt;add&lt;/span&gt;" style="rounded=0;whiteSpace=wrap;html=1;" vertex="1" parent="1">
          <mxGeometry x="540" y="1690" width="80" height="70" as="geometry" />
        </mxCell>
        <mxCell id="9gUpmdLU6GFoMHlMuonS-118" style="edgeStyle=orthogonalEdgeStyle;rounded=0;orthogonalLoop=1;jettySize=auto;html=1;exitX=0;exitY=0.75;exitDx=0;exitDy=0;fontSize=20;" edge="1" parent="1" source="9gUpmdLU6GFoMHlMuonS-120" target="9gUpmdLU6GFoMHlMuonS-111">
          <mxGeometry relative="1" as="geometry" />
        </mxCell>
        <mxCell id="9gUpmdLU6GFoMHlMuonS-119" style="edgeStyle=orthogonalEdgeStyle;rounded=0;orthogonalLoop=1;jettySize=auto;html=1;exitX=0;exitY=0.75;exitDx=0;exitDy=0;entryX=0;entryY=0.75;entryDx=0;entryDy=0;fontSize=20;" edge="1" parent="1" source="9gUpmdLU6GFoMHlMuonS-120" target="9gUpmdLU6GFoMHlMuonS-122">
          <mxGeometry relative="1" as="geometry">
            <Array as="points">
              <mxPoint x="160" y="1823" />
              <mxPoint x="160" y="1903" />
            </Array>
          </mxGeometry>
        </mxCell>
        <mxCell id="9gUpmdLU6GFoMHlMuonS-120" value="&lt;span style=&quot;font-size: 20px;&quot;&gt;add&lt;/span&gt;" style="rounded=0;whiteSpace=wrap;html=1;" vertex="1" parent="1">
          <mxGeometry x="540" y="1770" width="80" height="70" as="geometry" />
        </mxCell>
        <mxCell id="9gUpmdLU6GFoMHlMuonS-121" style="edgeStyle=orthogonalEdgeStyle;rounded=0;orthogonalLoop=1;jettySize=auto;html=1;exitX=1;exitY=0.5;exitDx=0;exitDy=0;entryX=1;entryY=0.5;entryDx=0;entryDy=0;fontSize=20;" edge="1" parent="1" source="9gUpmdLU6GFoMHlMuonS-122" target="9gUpmdLU6GFoMHlMuonS-123">
          <mxGeometry relative="1" as="geometry" />
        </mxCell>
        <mxCell id="9gUpmdLU6GFoMHlMuonS-122" value="&lt;span style=&quot;font-size: 20px;&quot;&gt;cmp&lt;/span&gt;" style="rounded=0;whiteSpace=wrap;html=1;" vertex="1" parent="1">
          <mxGeometry x="540" y="1850" width="80" height="70" as="geometry" />
        </mxCell>
        <mxCell id="9gUpmdLU6GFoMHlMuonS-123" value="&lt;span style=&quot;font-size: 20px;&quot;&gt;jne&lt;/span&gt;" style="rounded=0;whiteSpace=wrap;html=1;" vertex="1" parent="1">
          <mxGeometry x="540" y="1940" width="80" height="70" as="geometry" />
        </mxCell>
        <mxCell id="9gUpmdLU6GFoMHlMuonS-125" value="&lt;font style=&quot;font-size: 20px;&quot;&gt;load&lt;/font&gt;&lt;span style=&quot;color: rgba(0, 0, 0, 0); font-family: monospace; font-size: 0px; text-align: start;&quot;&gt;%3CmxGraphModel%3E%3Croot%3E%3CmxCell%20id%3D%220%22%2F%3E%3CmxCell%20id%3D%221%22%20parent%3D%220%22%2F%3E%3CmxCell%20id%3D%222%22%20value%3D%22%26lt%3Bfont%20style%3D%26quot%3Bfont-size%3A%2020px%3B%26quot%3B%26gt%3BLoad%26lt%3B%2Ffont%26gt%3B%22%20style%3D%22rounded%3D0%3BwhiteSpace%3Dwrap%3Bhtml%3D1%3B%22%20vertex%3D%221%22%20parent%3D%221%22%3E%3CmxGeometry%20x%3D%22500%22%20y%3D%22130%22%20width%3D%2280%22%20height%3D%22120%22%20as%3D%22geometry%22%2F%3E%3C%2FmxCell%3E%3C%2Froot%3E%3C%2FmxGraphModel%3E&lt;/span&gt;" style="rounded=0;whiteSpace=wrap;html=1;" vertex="1" parent="1">
          <mxGeometry x="200" y="1000" width="80" height="70" as="geometry" />
        </mxCell>
      </root>
    </mxGraphModel>
  </diagram>
</mxfile>
